#!OML:ASF H:\MichaelJackson\Top Level 1\Subject 1\Session 1\male.ASF
:FULLY-SPECIFIED
:DEGREES
689
root 7.42517 16.8185 -4.75438 -175.314 137.477 -181.846
lowerback 3.82546 -2.79126 -0.469037
upperback 0.660657 -3.70591 1.62268
thorax -1.32527 -1.8446 2.10471
lowerneck -7.26144 -8.29533 0.366415
upperneck 17.7449 -11.466 0.804776
head 6.62643 -5.40321 -0.692941
rclavicle 7.58612e-014 -4.17448e-015
rhumerus 21.8194 21.0878 -73.5029
rradius 127.213
rwrist -52.668
rhand -15.8711 -16.6543
rfingers 7.12502
rthumb 10.3245 313.619
lclavicle 7.58612e-014 -4.17448e-015
lhumerus -43.3178 -27.2818 95.1736
lradius 52.2029
lwrist 22.5318
lhand -12.0295 5.24981
lfingers 7.12502
lthumb 14.0286 34.7564
rfemur -46.0526 -7.11665 15.9248
rtibia 68.4388
rfoot -2.83286 14.9556
rtoes -41.5721
lfemur -18.8702 20.9155 -25.8275
ltibia 35.7912
lfoot -27.879 22.7766
ltoes 22.8502
690
root 7.42197 16.8286 -4.76195 -175.064 138.877 -181.619
lowerback 3.59976 -2.85019 -0.40176
upperback 0.549419 -3.7826 1.63141
thorax -1.31411 -1.88311 2.07062
lowerneck -7.46228 -8.17239 0.404438
upperneck 17.7691 -11.2706 0.568046
head 6.65123 -5.32576 -0.767067
rclavicle 2.74074e-014 -6.26172e-015
rhumerus 21.9505 20.9681 -73.189
rradius 127.17
rwrist -52.79
rhand -15.6109 -16.6222
rfingers 7.12502
rthumb 10.5755 313.664
lclavicle 2.74074e-014 -6.26172e-015
lhumerus -43.59 -27.2983 95.6926
lradius 52.2642
lwrist 22.6995
lhand -11.6478 5.4589
lfingers 7.12502
lthumb 14.3963 34.9396
rfemur -45.4912 -7.39498 15.4575
rtibia 68.7701
rfoot -1.94262 14.2222
rtoes -39.4514
lfemur -18.7125 21.1081 -26.0833
ltibia 35.3505
lfoot -28.1862 23.1339
ltoes 23.9824
691
root 7.41958 16.8375 -4.76562 -174.823 140.214 -181.463
lowerback 3.306 -2.89602 -0.31731
upperback 0.434145 -3.84116 1.6775
thorax -1.26838 -1.91284 2.06035
lowerneck -7.64559 -8.05776 0.453659
upperneck 17.7971 -11.0872 0.331505
head 6.67415 -5.25346 -0.84297
rclavicle -1.3418e-014 -2.22639e-014
rhumerus 22.0249 20.8402 -72.8967
rradius 127.13
rwrist -52.8352
rhand -15.3903 -16.5557
rfingers 7.12502
rthumb 10.7883 313.741
lclavicle -1.3418e-014 -2.22639e-014
lhumerus -43.8687 -27.3767 96.2846
lradius 52.3129
lwrist 22.793
lhand -11.1771 5.68009
lfingers 7.12502
lthumb 14.8498 35.1279
rfemur -44.8029 -7.61385 15.0174
rtibia 68.7635
rfoot -1.34886 13.086
rtoes -37.0482
lfemur -18.6393 21.2233 -26.2941
ltibia 34.9944
lfoot -28.5246 23.4938
ltoes 25.0148
692
root 7.41754 16.8437 -4.7658 -174.578 141.495 -181.366
lowerback 2.95712 -2.92723 -0.206839
upperback 0.304948 -3.87969 1.7471
thorax -1.20694 -1.93267 2.05585
lowerneck -7.80645 -7.95012 0.547886
upperneck 17.8259 -10.9149 0.0730432
head 6.69015 -5.18573 -0.932296
rclavicle -7.50164e-014 -6.16232e-015
rhumerus 22.0247 20.7043 -72.629
rradius 127.104
rwrist -52.8078
rhand -15.217 -16.462
rfingers 7.12502
rthumb 10.9555 313.844
lclavicle -7.50164e-014 -6.16232e-015
lhumerus -44.1847 -27.5305 96.9454
lradius 52.3681
lwrist 22.812
lhand -10.6068 5.8696
lfingers 7.12502
lthumb 15.3992 35.2761
rfemur -44.0194 -7.80116 14.6187
rtibia 68.4554
rfoot -1.10082 11.5754
rtoes -34.4728
lfemur -18.6673 21.2849 -26.4737
ltibia 34.7358
lfoot -28.8755 23.8811
ltoes 25.8917
693
root 7.41537 16.8478 -4.76248 -174.328 142.724 -181.326
lowerback 2.56299 -2.94082 -0.0691399
upperback 0.159666 -3.89461 1.83193
thorax -1.13825 -1.94073 2.04871
lowerneck -7.92582 -7.85291 0.683192
upperneck 17.8429 -10.7611 -0.187662
head 6.69326 -5.12512 -1.02776
rclavicle 5.29513e-014 -1.17283e-014
rhumerus 21.9458 20.5645 -72.3854
rradius 127.11
rwrist -52.7218
rhand -15.1288 -16.3625
rfingers 7.12502
rthumb 11.0405 313.948
lclavicle 5.29513e-014 -1.17283e-014
lhumerus -44.5604 -27.7736 97.6735
lradius 52.4466
lwrist 22.7732
lhand -9.97335 6.09033
lfingers 7.12502
lthumb 16.0093 35.4488
rfemur -43.1637 -7.97128 14.282
rtibia 67.8852
rfoot -1.20012 9.7187
rtoes -31.989
lfemur -18.7937 21.3309 -26.6208
ltibia 34.5734
lfoot -29.2369 24.2941
ltoes 26.6155
694
root 7.41302 16.8498 -4.75589 -174.063 143.917 -181.319
lowerback 2.14811 -2.95245 0.0687464
upperback -0.0041037 -3.90753 1.94243
thorax -1.07512 -1.94757 2.06703
lowerneck -8.0355 -7.7537 0.816027
upperneck 17.8639 -10.6041 -0.448696
head 6.69671 -5.06321 -1.12248
rclavicle -4.39314e-014 -2.52457e-014
rhumerus 21.8195 20.4703 -72.1504
rradius 127.154
rwrist -52.6063
rhand -15.1042 -16.3106
rfingers 7.12502
rthumb 11.0643 314.001
lclavicle -4.39314e-014 -2.52457e-014
lhumerus -44.9867 -28.0222 98.4581
lradius 52.5516
lwrist 22.6908
lhand -9.26296 6.31006
lfingers 7.12502
lthumb 16.6933 35.6123
rfemur -42.2641 -8.14098 14.0061
rtibia 67.1013
rfoot -1.58878 7.62435
rtoes -29.8012
lfemur -19.0088 21.4063 -26.7522
ltibia 34.5001
lfoot -29.6027 24.7303
ltoes 27.1748
695
root 7.40992 16.8499 -4.74631 -173.791 145.087 -181.352
lowerback 1.70727 -2.95108 0.210123
upperback -0.174381 -3.9041 2.07002
thorax -1.00365 -1.94616 2.09916
lowerneck -8.12736 -7.66069 0.95526
upperneck 17.8675 -10.4588 -0.693194
head 6.69266 -5.00566 -1.21273
rclavicle -1.11121e-013 7.55382e-015
rhumerus 21.6481 20.3804 -71.9231
rradius 127.241
rwrist -52.4943
rhand -15.0116 -16.2927
rfingers 7.12502
rthumb 11.1536 314.024
lclavicle -1.11121e-013 7.55382e-015
lhumerus -45.4678 -28.3019 99.2902
lradius 52.705
lwrist 22.5952
lhand -8.49147 6.58891
lfingers 7.12502
lthumb 17.4359 35.8269
rfemur -41.3529 -8.32183 13.8139
rtibia 66.1539
rfoot -2.16285 5.38319
rtoes -27.9637
lfemur -19.3002 21.5523 -26.8595
ltibia 34.5028
lfoot -29.9791 25.1676
ltoes 27.6088
696
root 7.40559 16.8484 -4.73374 -173.51 146.243 -181.407
lowerback 1.28588 -2.94362 0.345328
upperback -0.361473 -3.89314 2.203
thorax -0.959722 -1.94066 2.14197
lowerneck -8.22282 -7.57077 1.08654
upperneck 17.8758 -10.3229 -0.90468
head 6.69356 -4.95029 -1.29269
rclavicle -2.49475e-014 2.0276e-014
rhumerus 21.4089 20.3081 -71.7322
rradius 127.368
rwrist -52.3804
rhand -14.8398 -16.2939
rfingers 7.12502
rthumb 11.3192 314.032
lclavicle -2.49475e-014 2.0276e-014
lhumerus -46.0152 -28.5868 100.154
lradius 52.9084
lwrist 22.5286
lhand -7.66013 6.8763
lfingers 7.12502
lthumb 18.2358 36.0415
rfemur -40.4566 -8.55019 13.7066
rtibia 65.0978
rfoot -2.80667 3.12104
rtoes -26.3728
lfemur -19.6457 21.8069 -26.9532
ltibia 34.5651
lfoot -30.3607 25.5738
ltoes 27.9303
697
root 7.39956 16.8452 -4.71915 -173.222 147.397 -181.473
lowerback 0.875208 -2.92276 0.46521
upperback -0.544155 -3.86546 2.33324
thorax -0.91697 -1.9267 2.1909
lowerneck -8.3176 -7.48957 1.20625
upperneck 17.8602 -10.2068 -1.06109
head 6.69074 -4.90102 -1.35464
rclavicle -3.33958e-014 2.78299e-015
rhumerus 21.1116 20.2187 -71.5708
rradius 127.535
rwrist -52.2798
rhand -14.631 -16.2982
rfingers 7.12502
rthumb 11.5206 314.038
lclavicle -3.33958e-014 2.78299e-015
lhumerus -46.5943 -28.8904 101.031
lradius 53.1616
lwrist 22.5176
lhand -6.75704 7.24293
lfingers 7.12502
lthumb 19.1045 36.3246
rfemur -39.6096 -8.85639 13.6893
rtibia 63.9875
rfoot -3.42558 0.951602
rtoes -24.8247
lfemur -20.0307 22.1862 -27.0396
ltibia 34.6729
lfoot -30.7588 25.9149
ltoes 28.197
698
root 7.39133 16.8408 -4.70275 -172.923 148.552 -181.528
lowerback 0.495815 -2.88753 0.559172
upperback -0.728186 -3.81944 2.43584
thorax -0.893921 -1.90338 2.22794
lowerneck -8.4019 -7.42247 1.33657
upperneck 17.8242 -10.123 -1.15237
head 6.68266 -4.86152 -1.39944
rclavicle 7.35503e-014 -3.10104e-014
rhumerus 20.7116 20.0957 -71.4785
rradius 127.736
rwrist -52.166
rhand -14.3143 -16.2953
rfingers 7.12502
rthumb 11.826 314.059
lclavicle 7.35503e-014 -3.10104e-014
lhumerus -47.2305 -29.2357 101.903
lradius 53.4714
lwrist 22.586
lhand -5.78342 7.71578
lfingers 7.12502
lthumb 20.0405 36.7023
rfemur -38.8391 -9.2796 13.7561
rtibia 62.8726
rfoot -3.94925 -1.04436
rtoes -23.1724
lfemur -20.4391 22.7051 -27.1355
ltibia 34.8138
lfoot -31.1582 26.1586
ltoes 28.4166
699
root 7.38059 16.8351 -4.68491 -172.617 149.705 -181.556
lowerback 0.15581 -2.84454 0.604906
upperback -0.916098 -3.76354 2.50422
thorax -0.896441 -1.87484 2.25949
lowerneck -8.42337 -7.36721 1.47721
upperneck 17.7459 -10.0676 -1.17269
head 6.65344 -4.83021 -1.42185
rclavicle 2.55438e-014 -1.27222e-014
rhumerus 20.168 19.9482 -71.4745
rradius 127.967
rwrist -52.0019
rhand -14.0031 -16.285
rfingers 7.12502
rthumb 12.1262 314.086
lclavicle 2.55438e-014 -1.27222e-014
lhumerus -47.9411 -29.6007 102.765
lradius 53.8321
lwrist 22.7225
lhand -4.78976 8.21115
lfingers 7.12502
lthumb 20.9954 37.0947
rfemur -38.1546 -9.8603 13.8999
rtibia 61.7939
rfoot -4.34918 -2.81477
rtoes -21.2069
lfemur -20.8505 23.3574 -27.2507
ltibia 34.9792
lfoot -31.5491 26.2792
ltoes 28.6056
700
root 7.36717 16.828 -4.66603 -172.309 150.847 -181.55
lowerback -0.12783 -2.79786 0.608224
upperback -1.10381 -3.70244 2.52868
thorax -0.930754 -1.84347 2.27316
lowerneck -8.41025 -7.32481 1.632
upperneck 17.6373 -10.0425 -1.12619
head 6.61131 -4.80772 -1.42556
rclavicle -1.48592e-014 4.77083e-015
rhumerus 19.4693 19.7705 -71.57
rradius 128.219
rwrist -51.7416
rhand -13.6793 -16.2414
rfingers 7.12502
rthumb 12.4383 314.149
lclavicle -1.48592e-014 4.77083e-015
lhumerus -48.7123 -29.9861 103.6
lradius 54.2274
lwrist 22.9191
lhand -3.80007 8.703
lfingers 7.12502
lthumb 21.9459 37.4782
rfemur -37.5674 -10.6547 14.1227
rtibia 60.7819
rfoot -4.64605 -4.34673
rtoes -18.9434
lfemur -21.2558 24.1256 -27.3896
ltibia 35.1629
lfoot -31.915 26.2694
ltoes 28.7837
